<svg xmlns="http://www.w3.org/2000/svg" height="2048" preserveAspectRatio="none" style="display: block;" version="1.1" viewBox="0 0 2048 2048" width="2048">
<path d="M 0 0 L 2048 0 L 2048 2048 L 0 2048 L 0 0 z" fill="rgb(255,255,255)" transform="translate(0,0)"></path>
<path d="M 458.06 925.736 C 462.401 929.877 501.891 928.14 509.898 927.881 C 601.243 924.925 692.903 926.711 784.28 927.713 L 857.336 928.478 C 867.242 928.55 886.782 927.991 895.375 929.124 C 913.137 929.897 933.826 929.453 951.754 929.485 L 1051.22 929.526 L 1373.28 929.422 C 1428.34 929.378 1493.22 927.598 1547.61 929.62 L 1165.84 1308.95 L 1015.65 1308.98 C 1078.35 1245.05 1143.07 1182.43 1206.2 1118.9 C 1234.44 1090.48 1265.37 1061.07 1292.73 1032.06 C 1195.67 1030.45 1094.98 1031.88 997.659 1031.82 L 577.734 1032.01 L 577.642 1103.6 C 536.11 1103.83 494.577 1103.84 453.045 1103.62 L 454.47 1006.81 C 454.645 995.61 455.87 969.651 455.122 959.319 C 454.087 951.301 456.234 930.664 454.122 927.27 L 458.06 925.736 z" fill="rgb(190,153,92)" transform="translate(0,0)"></path>
<path d="M 458.06 925.736 C 462.401 929.877 501.891 928.14 509.898 927.881 C 601.243 924.925 692.903 926.711 784.28 927.713 L 857.336 928.478 C 867.242 928.55 886.782 927.991 895.375 929.124 C 877.621 930.52 849.612 929.633 830.976 929.545 L 715.71 929.064 L 552.44 929.417 C 520.313 929.555 488.408 930.148 456.266 929.37 C 456.088 938.233 456.197 950.798 455.122 959.319 C 454.087 951.301 456.234 930.664 454.122 927.27 L 458.06 925.736 z" fill="rgb(248,246,235)" transform="translate(0,0)"></path>
<path d="M 766.812 866.562 C 809.921 825.907 860.321 793.759 915.362 771.81 C 1036.83 723.548 1160.95 730.456 1282.05 775.73 C 1324.43 791.573 1361.94 808.859 1403.15 827.422 C 1418.06 834.137 1448.68 846.65 1464.24 849.201 C 1531.02 860.152 1604.77 835.712 1665.66 811.382 C 1632.02 844.123 1598.68 877.753 1565.47 910.964 C 1498.04 910.085 1428.4 911.111 1360.68 911.023 C 1287.71 844.968 1200.69 803.405 1102.51 796.096 C 1015.33 789.607 933.128 809.771 860.448 858.517 C 835.054 875.549 811.823 891.107 788.577 910.967 C 737.5 912.059 685.162 910.488 634.039 911.07 C 577.688 911.712 511.674 906.584 458.06 925.736 L 454.122 927.27 C 420.813 936.837 410.216 946.357 382.486 962.207 C 388.813 953.858 395.703 945.951 403.107 938.541 C 427.778 914.244 457.566 895.767 490.295 884.461 C 562.825 859.692 688.375 866.012 766.812 866.562 z" fill="rgb(190,153,92)" transform="translate(0,0)"></path>
<path d="M 1005.7 1047.86 C 1021.59 1047.04 1043.04 1047.55 1059.26 1047.56 L 1157.77 1047.67 L 895.678 1308.7 C 887.451 1309.75 854.678 1309.22 844.974 1309.22 L 743.821 1308.89 C 750.991 1300.58 767.052 1285.35 775.132 1277.3 L 836.586 1216.33 L 1005.7 1047.86 z" fill="rgb(190,153,92)" transform="translate(0,0)"></path>
<metadata><recraft-signature>{"signed_by": "recraft", "signature_b64": "HZUg2xzHxXCSghKzt6FDNucdeMSFuQHM7ZItJetf4lKOSNXxKGcwiqRcMfFrLxGhYL1AihVag6VwKm0qCpZ/CQ==", "signing_algo": "Ed25519", "generation_timestamp": 1782113688, "identifier": "2ac55cbd-f79b-40a4-a2f3-bb17a4e56d73"}</recraft-signature></metadata></svg>