<svg xmlns="http://www.w3.org/2000/svg" height="2048" preserveAspectRatio="none" style="display: block;" version="1.1" viewBox="0 0 2048 2048" width="2048">

<path d="M 419.213 643.916 C 486.189 644.662 553.667 643.467 620.683 643.857 C 688.617 644.253 753.307 656.481 813.483 689.248 C 802.754 695.405 792.218 701.893 781.89 708.702 C 735.245 678.504 664.53 659.256 609.452 656.122 L 609.685 1035.89 L 609.481 1249.6 C 609.23 1297.1 609.253 1344.6 609.547 1392.1 C 678.694 1386.07 749.668 1357.98 805.974 1318.93 C 985.945 1194.11 1007.99 914.942 851.618 762.484 C 846.614 757.605 841.341 752.885 836.215 748.134 C 847.957 737.787 858.653 728.386 871.083 718.89 C 890.937 732.875 906.786 744.489 924.639 761.184 C 983.967 816.423 1023.82 889.382 1038.24 969.152 C 1077.46 1195 883.745 1359.9 679.317 1398.69 C 646.927 1404.84 614.485 1403.71 581.739 1403.96 C 535.903 1404.82 487.829 1402.87 442.324 1403.9 C 438.464 1404.2 408.313 1404.59 407.299 1403.25 C 407.79 1401.35 413.598 1401.31 415.083 1401.35 C 418.175 1400.86 421.046 1400.17 424.085 1399.7 C 555.209 1366.17 539.799 1282.14 539.859 1171.56 L 539.888 976.664 L 539.813 841.997 C 539.762 793.861 544.767 744.719 515.293 703.332 C 492.174 670.868 453.896 653.547 415.662 646.639 C 413.562 646.586 411.506 646.261 409.402 646.204 L 408.774 645.033 L 407.725 645.534 L 407.573 645.31 C 407.824 643.167 417.601 643.864 419.213 643.916 z" fill="rgb(184,143,78)" transform="translate(0,0)"></path>
<path d="M 424.085 1399.7 L 423.978 1403.06 C 430.223 1403.15 436.144 1403.03 442.324 1403.9 C 438.464 1404.2 408.313 1404.59 407.299 1403.25 C 407.79 1401.35 413.598 1401.31 415.083 1401.35 C 418.175 1400.86 421.046 1400.17 424.085 1399.7 z" fill="rgb(228,214,190)" transform="translate(0,0)"></path>
<path d="M 424.085 1399.7 L 423.978 1403.06 C 422.555 1403.07 415.322 1403.41 414.612 1402.31 C 414.698 1401.88 414.598 1402.17 415.083 1401.35 C 418.175 1400.86 421.046 1400.17 424.085 1399.7 z" fill="rgb(192,158,107)" transform="translate(0,0)"></path>
<path d="M 415.662 646.639 C 413.562 646.586 411.506 646.261 409.402 646.204 L 408.774 645.033 L 407.725 645.534 L 407.573 645.31 C 407.824 643.167 417.601 643.864 419.213 643.916 C 418.43 644.238 415.346 645.125 414.92 645.594 C 415.167 645.942 415.415 646.29 415.662 646.639 z" fill="rgb(228,214,190)" transform="translate(0,0)"></path>
<path d="M 1010.6 644.448 C 1032.66 642.947 1067.37 643.875 1090.13 643.898 L 1369.13 1403.84 C 1340.64 1403.98 1312.15 1403.97 1283.66 1403.79 C 1276.58 1386.82 1268.47 1361.24 1262.18 1343.36 C 1248.46 1304.9 1234.98 1266.35 1221.73 1227.72 L 1109.28 907.965 C 1094.96 867.029 1079.79 826.397 1063.77 786.096 C 1048.55 747.672 1032 700.341 1000.73 671.482 C 991.944 663.374 972.374 665.349 961.142 667.315 C 898.362 680.657 836.329 719.424 795.268 769.238 C 683.311 905.059 678.385 1125.82 785.753 1265.64 C 793.143 1275.26 803.901 1288.51 812.945 1296.1 C 798.653 1307.68 788.578 1314.44 773.263 1324.31 C 764.969 1318.39 751.723 1306.64 744.117 1299.53 C 668.807 1229.59 628.979 1143.04 624.572 1040.32 C 616.568 853.762 761.482 688.354 940.754 651.316 C 963.322 646.653 987.551 645.258 1010.6 644.448 z" fill="rgb(184,143,78)" transform="translate(0,0)"></path>
<path d="M 1447.86 644.121 C 1506.76 642.626 1572.06 643.497 1631.16 643.943 C 1642.06 643.483 1643.56 646.008 1632.16 646.783 C 1594.54 654.708 1556.16 669.97 1534.38 703.301 C 1523.36 720.534 1516.53 740.113 1514.45 760.464 C 1511.93 783.624 1513.15 825.683 1513.17 849.967 L 1513.2 1009.4 L 1513.11 1183.64 C 1512.92 1252.72 1499.68 1334.58 1567.2 1377.12 C 1583.87 1387.75 1602.28 1395.35 1621.58 1399.59 L 1620.18 1403.43 C 1614.87 1403.3 1611.92 1403.25 1606.68 1403.88 C 1552.23 1403.93 1497.43 1404.43 1443.01 1403.83 L 1442.88 943.26 C 1441.62 935.85 1442.31 897.448 1442.33 888.041 L 1442.19 778.061 C 1442.25 766.977 1443.26 738.761 1441.12 728.598 L 1365.17 959.146 C 1342.78 1026.52 1318.24 1096.36 1297.99 1164.12 C 1290.97 1148.76 1284.51 1133.15 1278.62 1117.33 C 1280.99 1110.11 1283.84 1102.97 1286.36 1095.8 C 1334.78 957.66 1390.75 822.098 1436.84 683.197 C 1441.01 670.622 1443.94 656.962 1447.86 644.121 z" fill="rgb(184,143,78)" transform="translate(0,0)"></path>
<path d="M 1441.12 728.598 L 1441.6 726.465 L 1442.51 725.946 C 1443.65 732.725 1443.18 748.406 1443.17 755.755 L 1443.13 810.724 L 1443.19 898.009 C 1443.19 909.811 1443.75 931.988 1442.88 943.26 C 1441.62 935.85 1442.31 897.448 1442.33 888.041 L 1442.19 778.061 C 1442.25 766.977 1443.26 738.761 1441.12 728.598 z" fill="rgb(228,214,190)" transform="translate(0,0)"></path>
<path d="M 1631.16 643.943 C 1642.06 643.483 1643.56 646.008 1632.16 646.783 C 1632.48 646.401 1632.86 646.151 1632.9 645.683 C 1632.46 645.051 1631.74 644.581 1631.16 643.943 z" fill="rgb(228,214,190)" transform="translate(0,0)"></path>
<path d="M 1053.46 1083.45 C 1054.24 1095.7 1054.85 1125.24 1053.9 1137.36 L 1053.96 1404.01 C 958.31 1403.69 917.693 1403 828.415 1362.56 C 843.673 1354.73 856.276 1346.92 870.71 1337.78 C 895.815 1357.18 927.157 1377.33 958.507 1383.56 C 969.364 1385.71 980.293 1385.6 989.648 1378.92 C 1025.9 1353.05 1027.64 1230.1 1034.27 1186.56 C 1038.66 1157.7 1047.01 1129.43 1051.26 1100.39 C 1051.17 1095.23 1052.56 1088.61 1053.46 1083.45 z" fill="rgb(184,143,78)" transform="translate(0,0)"></path>
<path d="M 1053.46 1083.45 C 1054.24 1095.7 1054.85 1125.24 1053.9 1137.36 C 1053.26 1131.89 1054.19 1100.66 1051.26 1100.39 C 1051.17 1095.23 1052.56 1088.61 1053.46 1083.45 z" fill="rgb(228,214,190)" transform="translate(0,0)"></path>
<path d="M 1153.91 1399.7 C 1199.04 1375.36 1204.46 1320.27 1226 1280.26 C 1231.09 1301.17 1235.73 1322.2 1239.92 1343.31 C 1244.1 1365.07 1244.18 1389.03 1262.36 1403.99 C 1232.98 1403.91 1198.49 1404.85 1169.71 1403.77 C 1162.38 1404.21 1151.93 1403.89 1144.38 1403.88 C 1147.08 1402.65 1151.25 1400.45 1153.91 1399.7 z" fill="rgb(184,143,78)" transform="translate(0,0)"></path>
<path d="M 1153.91 1399.7 C 1155.34 1406.87 1165.15 1399.37 1169.71 1403.77 C 1162.38 1404.21 1151.93 1403.89 1144.38 1403.88 C 1147.08 1402.65 1151.25 1400.45 1153.91 1399.7 z" fill="rgb(192,158,107)" transform="translate(0,0)"></path>
<path d="M 1034.07 841.291 C 1032.4 811.344 1034.51 778.539 1034.26 748.441 C 1034.25 746.713 1035.72 749.948 1035.85 750.568 C 1047.16 781.404 1051.14 806.972 1053.28 839.253 C 1054.73 841.94 1054.91 940.983 1053.42 947.442 L 1052.33 947.263 C 1051.61 944.563 1051.22 943.955 1051.23 941.176 C 1050.71 937.794 1050.06 934.503 1049.55 931.136 C 1046.14 908.423 1037.47 883.881 1034.17 861.034 C 1033.58 856.968 1033.96 845.766 1034.07 841.291 z" fill="rgb(184,143,78)" transform="translate(0,0)"></path>
<path d="M 1053.28 839.253 C 1054.73 841.94 1054.91 940.983 1053.42 947.442 L 1052.33 947.263 C 1051.61 944.563 1051.22 943.955 1051.23 941.176 C 1050.71 937.794 1050.06 934.503 1049.55 931.136 L 1053.04 932.134 C 1053.46 901.866 1052.26 869.064 1053.28 839.253 z" fill="rgb(228,214,190)" transform="translate(0,0)"></path>
<path d="M 1049.55 931.136 L 1053.04 932.134 C 1053.16 934.046 1054.3 942.498 1051.23 941.176 C 1050.71 937.794 1050.06 934.503 1049.55 931.136 z" fill="rgb(192,158,107)" transform="translate(0,0)"></path>
<path d="M 1034.07 841.291 C 1032.4 811.344 1034.51 778.539 1034.26 748.441 C 1034.25 746.713 1035.72 749.948 1035.85 750.568 C 1033.97 759.528 1035.42 765.705 1034.96 774.219 C 1033.96 792.61 1036.47 824.159 1034.07 841.291 z" fill="rgb(192,158,107)" transform="translate(0,0)"></path>
<path d="M 1621.58 1399.59 C 1625.58 1400.17 1628.91 1400.82 1633.03 1401.29 C 1637.48 1401.16 1643.97 1402.59 1648.4 1403.54 C 1636.85 1404.04 1617.99 1404.83 1606.68 1403.88 C 1611.92 1403.25 1614.87 1403.3 1620.18 1403.43 L 1621.58 1399.59 z" fill="rgb(228,214,190)" transform="translate(0,0)"></path>
<path d="M 1621.58 1399.59 C 1625.58 1400.17 1628.91 1400.82 1633.03 1401.29 C 1633.52 1402.14 1633.43 1401.84 1633.49 1402.28 C 1632.73 1403.51 1622.07 1403.39 1620.18 1403.43 L 1621.58 1399.59 z" fill="rgb(192,158,107)" transform="translate(0,0)"></path>
<metadata><recraft-signature>{"signed_by": "recraft", "signature_b64": "QH3ud9gYatyxyth/1cEPimOFdtYOe5bga1GXZmew0DzHzNjYM3d39VtPUyHtlL5fyWzTNPe/oFxHBGiTYlD5CQ==", "signing_algo": "Ed25519", "generation_timestamp": 1782113668, "identifier": "ad97c2cf-2563-4aee-8f1b-5c8034f077bd"}</recraft-signature></metadata></svg>